PathFileType  4	(X/Y/Z) E:\AxonAIRepo\axonai_vps\Data\session_74dd741a74\MarkerData\OpenPose_default\PreAugmentation
DataRate	CameraRate	NumFrames	NumMarkers	Units	OrigDataRate	OrigDataStartFrame	OrigNumFrames
60.0	60.0	12	20	m	60.0	1	398
Frame#	Time	Neck			RShoulder			RElbow			RWrist			LShoulder			LElbow			LWrist			midHip			RHip			RKnee			RAnkle			LHip			LKnee			LAnkle			LBigToe			LSmallToe			LHeel			RBigToe			RSmallToe			RHeel			
		X1	Y1	Z1	X2	Y2	Z2	X3	Y3	Z3	X4	Y4	Z4	X5	Y5	Z5	X6	Y6	Z6	X7	Y7	Z7	X8	Y8	Z8	X9	Y9	Z9	X10	Y10	Z10	X11	Y11	Z11	X12	Y12	Z12	X13	Y13	Z13	X14	Y14	Z14	X15	Y15	Z15	X16	Y16	Z16	X17	Y17	Z17	X18	Y18	Z18	X19	Y19	Z19	X20	Y20	Z20	

1	0.0000000	-3.3821600	1.5186400	0.1384300	-3.2725700	1.5103100	0.3146600	-3.4252200	1.2072400	0.3896000	-3.2553700	1.0269100	0.2050200	-3.2961100	1.5172500	-0.0444400	-3.4868100	1.2006300	-0.0817400	-3.3648700	1.0267000	0.0514700	-3.2923100	0.9876000	0.1472800	-3.4616300	0.9863100	0.2613900	-3.3091800	0.5496900	0.2761100	-3.2816300	0.1672600	0.3388300	-3.5045000	0.9782000	0.0493600	-3.5565500	0.5124200	0.0815800	-3.2289900	0.1841300	0.1195000	-3.4555500	0.0825200	0.0981400	-3.5495800	0.0768600	0.0516800	-3.3336500	0.1274000	0.1521300	-3.4355200	0.0617300	0.3549500	-3.5048100	0.0735400	0.3917600	-3.3180800	0.1251200	0.3185900
2	0.0166667	-3.3898100	1.5136600	0.1382900	-3.3016100	1.5124000	0.3129300	-3.3964500	1.2071300	0.3840600	-3.2737900	1.0316000	0.2014500	-3.2966000	1.5172200	-0.0444800	-3.5185500	1.1978600	-0.0862600	-3.4132500	1.0259000	0.0508700	-3.2414900	0.9857100	0.1522500	-3.4883900	0.9893200	0.2656400	-3.2499800	0.5551900	0.2798500	-3.2880700	0.1654900	0.3401600	-3.5351900	0.9732900	0.0531200	-3.5497700	0.5128400	0.0821400	-3.2564800	0.1806700	0.1167500	-3.4287500	0.0856400	0.0951300	-3.5366800	0.0718500	0.0480300	-3.3300900	0.1334700	0.1519800	-3.4081700	0.0651700	0.3502900	-3.5039200	0.0725600	0.3919000	-3.3251600	0.1237700	0.3197400
3	0.0333333	-3.3924500	1.5134200	0.1381400	-3.2992800	1.5122600	0.3131200	-3.3948000	1.2071100	0.3840000	-3.3118500	1.0319700	0.2005300	-3.2967000	1.5176900	-0.0445000	-3.5447300	1.1978500	-0.0897700	-3.4552000	1.0253800	0.0486500	-3.2242900	0.9845000	0.1561300	-3.5274200	0.9924100	0.2718300	-3.2249200	0.5585900	0.2821600	-3.2830000	0.1634900	0.3398000	-3.5639100	0.9701500	0.0566200	-3.5355600	0.5155100	0.0835200	-3.2538800	0.1820300	0.1169200	-3.3763600	0.0949800	0.0924000	-3.5369700	0.0704700	0.0467000	-3.3252400	0.1385000	0.1520400	-3.3773600	0.0666000	0.3455300	-3.5022900	0.0688200	0.3922600	-3.3238900	0.1241000	0.3193600
4	0.0500000	-3.3822100	1.5154700	0.1388100	-3.2804100	1.5107700	0.3143000	-3.4201900	1.2073900	0.3895800	-3.3529000	1.0318500	0.2022000	-3.2963400	1.5173800	-0.0444400	-3.5425700	1.1983300	-0.0894500	-3.4781100	1.0246900	0.0462900	-3.2372900	0.9854300	0.1591200	-3.5548900	0.9944200	0.2761400	-3.2299900	0.5627500	0.2827800	-3.2761500	0.1613900	0.3392400	-3.5726000	0.9695100	0.0577500	-3.5192600	0.5175100	0.0850700	-3.2344100	0.1853400	0.1187700	-3.3139200	0.1047500	0.0930200	-3.5377300	0.0715300	0.0468600	-3.3221500	0.1421100	0.1521500	-3.3782900	0.0672600	0.3456600	-3.5034700	0.0706300	0.3921200	-3.3200900	0.1251300	0.3185500
5	0.0666667	-3.3555000	1.5147100	0.1411400	-3.2701000	1.5104200	0.3149000	-3.4438100	1.2072600	0.3948000	-3.3689700	1.0307000	0.2033600	-3.2957600	1.5174100	-0.0443700	-3.5129900	1.1992800	-0.0856700	-3.4824100	1.0260600	0.0454200	-3.2479400	0.9868500	0.1600500	-3.5616600	0.9951200	0.2771500	-3.2383600	0.5645700	0.2826600	-3.2730700	0.1588300	0.3392900	-3.5699600	0.9705500	0.0574500	-3.5056100	0.5186000	0.0863500	-3.2243700	0.1870000	0.1197400	-3.2608800	0.1144500	0.0965600	-3.5301700	0.0746900	0.0478400	-3.3210500	0.1433800	0.1521300	-3.4074300	0.0616100	0.3513800	-3.4959900	0.0715000	0.3923300	-3.2864300	0.0908400	0.3197400
6	0.0833333	-3.3295700	1.5106100	0.1437300	-3.2699500	1.5105000	0.3148900	-3.4591500	1.2076200	0.3961600	-3.3495800	1.0275500	0.2003400	-3.2955200	1.5176900	-0.0443300	-3.4859600	1.1989900	-0.0822300	-3.4783800	1.0257400	0.0456800	-3.2372100	0.9855200	0.1580900	-3.5591800	0.9957400	0.2766800	-3.2357500	0.5634200	0.2824700	-3.2725000	0.1578300	0.3394300	-3.5682700	0.9693900	0.0571200	-3.4895100	0.5202600	0.0879400	-3.2322200	0.1860400	0.1189800	-3.2204800	0.1209100	0.1010700	-3.5050700	0.0791200	0.0505600	-3.3193400	0.1433300	0.1518000	-3.4328000	0.0569800	0.3564000	-3.4787600	0.0787000	0.3926300	-3.2673000	0.0944800	0.3160800
7	0.1000000	-3.3322300	1.5073100	0.1438300	-3.2720700	1.5102200	0.3147600	-3.4863900	1.2087900	0.3950400	-3.3212600	1.0249500	0.1957500	-3.2962700	1.5168900	-0.0443100	-3.4779400	1.1988300	-0.0812000	-3.4742500	1.0243000	0.0459400	-3.2272500	0.9809400	0.1565200	-3.5577400	0.9955000	0.2763300	-3.2283400	0.5622800	0.2823800	-3.2661500	0.1596400	0.3381100	-3.5695400	0.9665400	0.0571100	-3.4740100	0.5218100	0.0895700	-3.2506800	0.1829100	0.1172000	-3.2046700	0.1239600	0.1049000	-3.4683000	0.0864800	0.0543200	-3.3172900	0.1431300	0.1513900	-3.4306200	0.0569400	0.3563300	-3.4548300	0.0866400	0.3933400	-3.2433000	0.0986400	0.3115600
8	0.1166667	-3.3614400	1.5075300	0.1413600	-3.2724900	1.5099200	0.3147000	-3.5275000	1.2110800	0.3932800	-3.3226400	1.0247000	0.1954100	-3.2978500	1.5151400	-0.0443100	-3.4819700	1.1991200	-0.0816500	-3.4730400	1.0225000	0.0457600	-3.2514200	0.9761100	0.1583700	-3.5585000	0.9947400	0.2761200	-3.2307900	0.5606800	0.2820100	-3.2522300	0.1637400	0.3350800	-3.5714100	0.9649400	0.0572300	-3.4662600	0.5224400	0.0904900	-3.2598700	0.1818300	0.1163500	-3.2229500	0.1202500	0.1072900	-3.4467700	0.0916100	0.0563000	-3.3237700	0.1425700	0.1522100	-3.4104200	0.0610400	0.3525100	-3.4450100	0.0892800	0.3937300	-3.2291100	0.1012600	0.3088700
9	0.1333333	-3.3866600	1.5097000	0.1390200	-3.2704200	1.5097900	0.3147900	-3.5523600	1.2098100	0.3907800	-3.3539300	1.0250800	0.1998200	-3.2988600	1.5142200	-0.0443100	-3.4874100	1.1990900	-0.0822900	-3.4751400	1.0222600	0.0454200	-3.3089200	0.9740600	0.1615200	-3.5558500	0.9911100	0.2759500	-3.2546900	0.5595400	0.2804100	-3.2464300	0.1681800	0.3332200	-3.5728000	0.9648800	0.0573000	-3.4654200	0.5225500	0.0907100	-3.2479100	0.1837900	0.1175900	-3.2551100	0.1137500	0.1066500	-3.4615400	0.0917800	0.0544100	-3.3473900	0.1387700	0.1558400	-3.4003800	0.0635700	0.3503100	-3.4613600	0.0852300	0.3931900	-3.2606000	0.1327100	0.3079800
10	0.1500000	-3.3917900	1.5127700	0.1383000	-3.2678500	1.5092100	0.3149900	-3.5361100	1.2045300	0.3874200	-3.3745900	1.0240800	0.2045700	-3.2989200	1.5142400	-0.0442900	-3.4842000	1.1983600	-0.0818900	-3.4714800	1.0238900	0.0460200	-3.3581800	0.9763400	0.1630300	-3.5420800	0.9878400	0.2762400	-3.2908100	0.5570600	0.2780000	-3.2593100	0.1687500	0.3350300	-3.5726400	0.9654100	0.0573800	-3.4747600	0.5213200	0.0899000	-3.2367100	0.1854000	0.1186900	-3.2602800	0.1124200	0.1038000	-3.4890800	0.0870500	0.0513700	-3.3802800	0.1332300	0.1609700	-3.4156200	0.0636400	0.3523700	-3.4844700	0.0814800	0.3922500	-3.2946600	0.1271000	0.3146800
11	0.1666667	-3.3869600	1.5160300	0.1384200	-3.2730300	1.5095900	0.3147200	-3.4928900	1.2017000	0.3861800	-3.3563500	1.0243100	0.2073200	-3.2993600	1.5140900	-0.0442700	-3.4628300	1.1990700	-0.0791500	-3.4484400	1.0274900	0.0483100	-3.3604400	0.9803000	0.1640400	-3.5187800	0.9879000	0.2772200	-3.3164800	0.5538800	0.2760700	-3.2842200	0.1654700	0.3395200	-3.5701800	0.9691200	0.0574000	-3.5015100	0.5184100	0.0873600	-3.2519600	0.1827300	0.1169900	-3.2314700	0.1179700	0.1023400	-3.4924000	0.0858700	0.0510100	-3.4029100	0.1296700	0.1645300	-3.4311800	0.0621900	0.3548600	-3.4918200	0.0829900	0.3917300	-3.3394200	0.1198500	0.3231000
12	0.1833333	-3.3848900	1.5182400	0.1384200	-3.2956600	1.5129800	0.3132200	-3.4586400	1.2040100	0.3894200	-3.3157300	1.0241700	0.2089800	-3.2994800	1.5139200	-0.0443100	-3.4240400	1.2016400	-0.0739300	-3.4122200	1.0279400	0.0515600	-3.3278300	0.9838700	0.1660300	-3.5054500	0.9916900	0.2777700	-3.3216500	0.5519100	0.2752800	-3.3150900	0.1602700	0.3453400	-3.5664500	0.9736300	0.0575000	-3.5307100	0.5159900	0.0845300	-3.2857100	0.1776900	0.1137700	-3.2018800	0.1247100	0.1030900	-3.4702900	0.0879000	0.0535300	-3.4158800	0.1282600	0.1667200	-3.4165600	0.0635000	0.3523000	-3.4859700	0.0852600	0.3917600	-3.3856300	0.1124200	0.3300700
